Coordinates
version=1
nRows=7
nColumns=42
inDegrees=yes

Units are S.I. units (second, meters, Newtons, ...)
If the header above contains a line with 'inDegrees', this indicates whether rotational values are in degrees (yes) or radians (no).

endheader
time	pelvis_tilt	pelvis_list	pelvis_rotation	pelvis_tx	pelvis_ty	pelvis_tz	hip_flexion_r	hip_adduction_r	hip_rotation_r	knee_angle_r	knee_adduction_r	knee_angle_r_beta	ankle_angle_r	subtalar_angle_r	mtp_angle_r	hip_flexion_l	hip_adduction_l	hip_rotation_l	knee_angle_l	knee_adduction_l	knee_angle_l_beta	ankle_angle_l	subtalar_angle_l	mtp_angle_l	lumbar_extension	lumbar_bending	lumbar_rotation	arm_flex_r	arm_add_r	arm_rot_r	elbow_flex_r	pro_sup_r	wrist_flex_r	wrist_dev_r	arm_flex_l	arm_add_l	arm_rot_l	elbow_flex_l	pro_sup_l	wrist_flex_l	wrist_dev_l
      0.00000000	     -3.90198064	     -3.15870766	      0.65221383	     -1.38519730	      0.86622494	     -0.37929965	      1.09649057	      3.65770386	      0.41500393	      3.64237354	      8.28203224	      0.06357141	      7.39215138	      0.38521284	     -9.55198696	     24.37114824	     -6.87850458	      4.61109005	     61.93408823	      9.17471053	      1.08095376	      6.76235955	    -15.11147376	     -9.55198696	     -3.64785499	      1.53776283	      3.44850529	     -5.90780400	    -20.74830701	      9.18647079	     42.24867373	     90.00000001	      0.00000000	      0.00000000	     -3.61266467	     -9.82552559	    -10.46311394	     43.25745328	     90.00000001	      0.00000000	      0.00000000
      0.01000000	     -3.96843075	     -3.20747731	      0.70611967	     -1.37510543	      0.86537575	     -0.37846405	      0.44887486	      3.91113729	      0.25084003	      3.72739480	      8.07926118	      0.06505531	      7.90720205	      0.50519936	     -9.52274155	     25.92051049	     -6.90589594	      4.39626339	     60.13586764	      9.12062652	      1.04956889	      7.19953922	    -14.88905536	     -9.52274155	     -3.64135164	      1.47432355	      3.56529183	     -5.05356546	    -20.62052660	      9.11626274	     42.83814844	     90.00000001	      0.00000000	      0.00000000	     -3.99518898	     -9.92291668	    -10.56763608	     43.00125768	     90.00000001	      0.00000000	      0.00000000
      0.02000000	     -4.01752270	     -3.19477927	      0.74702278	     -1.36495472	      0.86443301	     -0.37773979	     -0.29698960	      4.07037081	      0.24849447	      3.64419063	      7.91912940	      0.06360313	      8.54775318	      0.66705669	     -9.49238642	     27.30465859	     -6.87640938	      4.19915019	     58.11753832	      9.15990328	      1.01434240	      7.77565573	    -14.85559705	     -9.49238642	     -3.65442086	      1.35230339	      3.69464838	     -4.17127060	    -20.51285084	      9.04919085	     43.38994788	     90.00000001	      0.00000000	      0.00000000	     -4.29757049	    -10.00138093	    -10.76815057	     42.68537192	     90.00000001	      0.00000000	      0.00000000
      0.03000000	     -3.60581510	     -2.82151557	      0.69623509	     -1.35447621	      0.86409871	     -0.37730250	     -1.73741580	      3.68187246	      0.75605885	      3.18865268	      8.04162774	      0.05565249	      9.16985378	      0.71982694	     -9.41439781	     27.78926880	     -6.51144153	      4.03145382	     55.49754273	      9.51156873	      0.96861485	      8.27654271	    -15.30400591	     -9.41439781	     -4.19977166	      0.86002116	      3.85316937	     -3.19231916	    -20.35676614	      8.99828835	     43.83003207	     90.00000001	      0.00000000	      0.00000000	     -4.45514194	    -10.00340292	    -11.38916485	     42.20033539	     90.00000001	      0.00000000	      0.00000000
      0.04000000	     -3.45991928	     -2.70458346	      0.61292116	     -1.34411258	      0.86330667	     -0.37674877	     -2.73698087	      3.65230354	      1.00326253	      3.04336292	      7.99259897	      0.05311670	      9.64876668	      0.64571290	     -9.34014429	     28.58135156	     -6.46232181	      3.25199274	     52.89469020	      9.30267749	      0.92318650	      8.68709039	    -15.16982891	     -9.34014429	     -4.43843210	      0.65517280	      4.05039420	     -2.31120505	    -20.26371207	      9.01105362	     44.36508345	     90.00000001	      0.00000000	      0.00000000	     -4.71882886	    -10.05261025	    -11.66069690	     41.82614998	     90.00000001	      0.00000000	      0.00000000
      0.05000000	     -3.39596184	     -2.65623049	      0.48175480	     -1.33373013	      0.86236228	     -0.37613883	     -3.60863125	      3.68855509	      1.21429052	      2.98240219	      7.95588393	      0.05205274	     10.13851036	      0.68726591	     -9.28454051	     29.33263344	     -6.54985571	      2.40928418	     50.08833450	      9.14383247	      0.87420635	      9.13568438	    -14.77342400	     -9.28454051	     -4.58024720	      0.52662255	      4.28059971	     -1.46228021	    -20.18352266	      9.04868990	     44.89016441	     90.00000001	      0.00000000	      0.00000000	     -4.97212186	    -10.07992488	    -11.95499955	     41.42179821	     90.00000001	      0.00000000	      0.00000000
      0.06000000	     -3.22658383	     -2.55987041	      0.29552721	     -1.32322808	      0.86150556	     -0.37561589	     -4.59502019	      3.62448644	      1.43843404	      2.93706522	      7.98323806	      0.05126146	     10.56661584	      0.69885073	     -9.22737926	     29.75853298	     -6.63653572	      1.36307426	     46.97958606	      8.97256873	      0.81994846	      9.46895638	    -14.17609754	     -9.22737926	     -4.84727874	      0.35783355	      4.54893428	     -0.62050345	    -20.11447330	      9.12171725	     45.40324275	     90.00000001	      0.00000000	      0.00000000	     -5.19661985	    -10.07911028	    -12.31330725	     41.00737148	     90.00000001	      0.00000000	      0.00000000
